<?xml version="1.0" encoding="UTF-8"?> <svg xmlns="http://www.w3.org/2000/svg" width="50" height="50" viewBox="0 0 50 38" fill="none"> <path d="M42.3271 3.35836C39.1396 1.92086 35.7229 0.85836 32.15 0.254193C32.1182 0.248085 32.0853 0.252021 32.0558 0.265458C32.0263 0.278896 32.0017 0.301169 31.9854 0.329193C31.5479 1.09794 31.0604 2.10003 30.7188 2.89169C26.9294 2.32552 23.0769 2.32552 19.2875 2.89169C18.907 2.01432 18.4778 1.15883 18.0021 0.329193C17.986 0.300824 17.9616 0.278047 17.9322 0.263902C17.9028 0.249757 17.8698 0.244916 17.8375 0.250026C14.2667 0.854193 10.85 1.91669 7.66044 3.35628C7.633 3.36779 7.60974 3.38741 7.59377 3.41253C1.11044 12.9438 -0.666642 22.2396 0.206275 31.4188C0.208704 31.4413 0.215682 31.463 0.226785 31.4827C0.237888 31.5024 0.252883 31.5196 0.270858 31.5334C4.05501 34.2884 8.27573 36.3871 12.7563 37.7417C12.7875 37.7513 12.8209 37.7513 12.8521 37.7416C12.8834 37.732 12.9109 37.7131 12.9313 37.6875C13.8954 36.3981 14.7498 35.0301 15.4854 33.5979C15.4957 33.5784 15.5015 33.5568 15.5027 33.5348C15.5039 33.5127 15.5003 33.4907 15.4922 33.4701C15.4841 33.4496 15.4716 33.431 15.4558 33.4157C15.4399 33.4004 15.4209 33.3886 15.4 33.3813C14.0542 32.8745 12.7502 32.2629 11.5 31.5521C11.4776 31.5393 11.4586 31.5211 11.4449 31.4991C11.4312 31.4772 11.4232 31.4522 11.4216 31.4264C11.4199 31.4006 11.4247 31.3748 11.4355 31.3512C11.4463 31.3277 11.4627 31.3073 11.4834 31.2917C11.7459 31.0979 12.0084 30.8959 12.2584 30.6938C12.2809 30.6756 12.308 30.664 12.3367 30.6604C12.3653 30.6567 12.3945 30.661 12.4209 30.6729C20.6021 34.3479 29.4625 34.3479 37.5479 30.6729C37.5744 30.6603 37.6038 30.6554 37.6329 30.6587C37.662 30.662 37.6896 30.6735 37.7125 30.6917C37.9625 30.8959 38.2229 31.0979 38.4875 31.2917C38.5084 31.3069 38.5251 31.3271 38.5362 31.3504C38.5474 31.3738 38.5525 31.3995 38.5513 31.4253C38.5501 31.4511 38.5424 31.4762 38.5291 31.4983C38.5158 31.5204 38.4972 31.5389 38.475 31.5521C37.2292 32.2688 35.9334 32.875 34.5729 33.3792C34.552 33.3868 34.533 33.3987 34.5171 33.4143C34.5012 33.4298 34.4888 33.4485 34.4807 33.4692C34.4726 33.4899 34.4691 33.5121 34.4702 33.5343C34.4714 33.5565 34.4773 33.5782 34.4875 33.5979C35.2375 35.0292 36.0959 36.3917 37.0396 37.6854C37.0592 37.712 37.0866 37.7318 37.1179 37.7423C37.1492 37.7527 37.183 37.7532 37.2146 37.7438C41.7028 36.393 45.9304 34.2933 49.7188 31.5334C49.7373 31.5204 49.7528 31.5037 49.7643 31.4843C49.7758 31.4649 49.783 31.4433 49.7854 31.4209C50.8271 20.8084 48.0396 11.5875 42.3917 3.41669C42.3778 3.39014 42.3549 3.36944 42.3271 3.35836ZM16.7084 25.8292C14.2459 25.8292 12.2146 23.6021 12.2146 20.8709C12.2146 18.1375 14.2063 15.9125 16.7084 15.9125C19.2292 15.9125 21.2417 18.1563 21.2021 20.8709C21.2021 23.6042 19.2104 25.8292 16.7084 25.8292V25.8292ZM33.3229 25.8292C30.8584 25.8292 28.8292 23.6021 28.8292 20.8709C28.8292 18.1375 30.8188 15.9125 33.3229 15.9125C35.8438 15.9125 37.8563 18.1563 37.8167 20.8709C37.8167 23.6042 35.8459 25.8292 33.3229 25.8292V25.8292Z" fill="#F2C067"></path> </svg> 