<?xml version="1.0" encoding="UTF-8"?> <svg xmlns="http://www.w3.org/2000/svg" width="50" height="50" viewBox="0 0 40 32" fill="none"> <path d="M39.25 4.06045C37.8085 4.69908 36.2793 5.11807 34.7135 5.30345C36.3628 4.31665 37.5969 2.76385 38.186 0.93445C36.6358 1.85472 34.9395 2.50276 33.1705 2.85045C32.4315 2.06216 31.5384 1.43405 30.5466 1.00505C29.5549 0.576043 28.4856 0.355283 27.405 0.35645C23.043 0.35645 19.506 3.89245 19.506 8.25545C19.506 8.87395 19.576 9.47745 19.711 10.056C13.146 9.72645 7.32604 6.58145 3.43004 1.80195C2.72757 3.00748 2.35845 4.37819 2.36054 5.77345C2.3595 7.07396 2.67973 8.35458 3.29276 9.50153C3.90579 10.6485 4.79265 11.6263 5.87454 12.3479C4.62039 12.3081 3.39388 11.9694 2.29704 11.36C2.29604 11.393 2.29604 11.4254 2.29604 11.4594C2.29604 15.2854 5.01854 18.478 8.63154 19.2045C7.46816 19.5194 6.24839 19.5656 5.06454 19.3395C6.06954 22.477 8.98654 24.7615 12.443 24.8255C9.645 27.0212 6.18979 28.2123 2.63304 28.207C1.99554 28.207 1.36704 28.17 0.748535 28.0965C4.3602 30.417 8.56361 31.6488 12.8565 31.6445C27.3855 31.6445 35.3305 19.6089 35.3305 9.17195C35.3305 8.82995 35.3225 8.48845 35.3075 8.14895C36.8548 7.0319 38.19 5.64729 39.25 4.06045V4.06045Z" fill="#F2C067"></path> </svg> 